<svg id="Capa_1" enable-background="new 0 0 497 497" height="512" viewBox="0 0 497 497" width="512" xmlns="http://www.w3.org/2000/svg"><g><g><g><path d="m97.631 5.442c-9.045 2.867-16.19 10.011-19.056 19.057-12.705 40.085-3.164 85.695 28.624 117.483l107.915-107.916c-31.787-31.788-77.397-41.329-117.483-28.624z" fill="#ffb5c0"/><path d="m107.055 33.937c-9.44 30.281-1.473 64.002 21.356 86.831l65.489-65.489c-23.579-23.58-57.113-30.593-86.845-21.342z" fill="#ff8e9e"/></g><g><path d="m399.432 5.442c9.045 2.867 16.19 10.011 19.056 19.057 12.705 40.085 3.164 85.695-28.624 117.483l-107.915-107.916c31.787-31.788 77.397-41.329 117.483-28.624z" fill="#ffdbe0"/><path d="m390.008 33.937c9.44 30.281 1.473 64.002-21.356 86.831l-65.489-65.489c23.579-23.58 57.114-30.593 86.845-21.342z" fill="#ffb5c0"/></g></g><g><path d="m248.5 30.972-22.526 8.035v186.905h197.432v-47.748c0-55.159-57.125-128.292-141.458-144.098-10.729-2.011-21.899-3.094-33.448-3.094z" fill="#ffdbe0"/><path d="m248.5 30.972c-11.522 0-22.671 1.083-33.386 3.094-84.194 15.803-141.52 88.911-141.52 144.098v47.748h174.906v-164.94c-8.284-8.284-8.284-21.716 0-30z" fill="#ffb5c0"/></g><g><path d="m362.468 294.469h-113.968v86.058c41.438 0 82.877-4.223 123.666-12.667h.001c12.369-2.561 21.239-13.456 21.239-26.086v-16.366z" fill="#676fb2"/><path d="m134.532 294.469-30.938 30.938v16.366c0 12.631 8.87 23.526 21.239 26.086h.001c40.79 8.444 82.228 12.667 123.666 12.667v-86.058h-113.968z" fill="#4c5699"/></g><g><g><path d="m263.884 345.019h-24.316l-37.773 37.773v80.679h46.705 46.705l13.731-13.731v-76.968c-6.21-7.798-13.87-14.377-22.562-19.311-6.912-3.924-14.479-6.807-22.49-8.442z" fill="#ffb5c0"/><path d="m248.499 343.472c-13.732 0-26.655 3.642-37.851 9.989-8.708 4.936-16.365 11.501-22.585 19.311v35.148l13.732 13.731c0-37.735 26.725-69.406 62.089-76.632-4.974-1.015-10.119-1.547-15.385-1.547z" fill="#ff8e9e"/></g><g fill="#ffcbbe"><path d="m248.5 323.463-37.852 29.998c4.324 26.657 21.077 39.998 37.852 40.002 16.773.004 33.547-13.326 37.875-40.002z"/><g><path d="m187.941 372.926c-10.758 13.577-16.941 30.568-16.941 48.725v41.82h30.795v-56.823c0-12.629-4.986-24.741-13.854-33.722z"/><path d="m309.059 372.926c-8.868 8.98-13.854 21.093-13.854 33.723v56.823h30.795v-41.82c0-18.154-6.181-35.145-16.941-48.726z"/></g></g></g><g><g><path d="m93.594 178.472c-33.137 0-60 26.863-60 60s26.863 60 60 60h37.573v-120z" fill="#ff8e9e"/><path d="m403.406 178.472h-37.5v120h37.5c33.137 0 60-26.863 60-60s-26.863-60-60-60z" fill="#ffb5c0"/></g><g><path d="m131.167 154.393v135.297l108.222 66.769h33.259c4.655-.781 9.234-1.785 13.727-2.998 32.416-8.748 60.329-28.456 79.531-54.898v-144.17z" fill="#ffddcf"/><path d="m151.094 213.673v-59.281h-19.927v144.271c19.204 26.396 47.095 46.065 79.481 54.798 4.484 1.209 9.061 2.219 13.705 2.998 7.854 1.317 15.919 2.013 24.147 2.013s16.293-.696 24.148-2.013c-68.688-11.466-121.554-70.807-121.554-142.786z" fill="#ffcbbe"/></g><g><g fill="#ff8e9e"><ellipse cx="168.5" cy="260.472" rx="29" ry="23"/><ellipse cx="328.5" cy="260.472" rx="29" ry="23"/></g><g fill="#313d40"><path d="m186.051 218.972c-4.142 0-7.5 3.358-7.5 7.5v12c0 4.142 3.358 7.5 7.5 7.5s7.5-3.358 7.5-7.5v-12c0-4.142-3.358-7.5-7.5-7.5z"/><path d="m310.949 218.972c-4.142 0-7.5 3.358-7.5 7.5v12c0 4.142 3.358 7.5 7.5 7.5s7.5-3.358 7.5-7.5v-12c0-4.142-3.358-7.5-7.5-7.5z"/><path d="m269.892 231.958c-3.122-2.722-7.86-2.397-10.582.726-2.73 3.132-6.67 4.928-10.811 4.928s-8.081-1.796-10.811-4.928c-2.721-3.123-7.46-3.448-10.582-.726-3.123 2.722-3.448 7.459-.726 10.582 5.579 6.401 13.641 10.073 22.118 10.073s16.539-3.671 22.118-10.073c2.724-3.123 2.399-7.861-.724-10.582z"/></g></g></g><g><path d="m387.543 150.951c-12.936-28.638-34.503-52.753-61.554-68.791h-110.288v117.653c26.838-6.693 52.278-18.705 74.551-35.42l26.341 26.341c8.042 8.043 18.253 13.13 29.313 14.716v119.958h47.5v-147.244c0-9.384-2-18.661-5.863-27.213z" fill="#676fb2"/><path d="m248.5 60.972c-61.84 0-115.052 36.869-139.043 89.979-3.863 8.552-5.864 17.829-5.864 27.213v147.243h47.5v-119.425h14.563c16.934 0 33.746-2.105 50.043-6.169 9.147-58.309 53.043-104.836 110.288-117.653-24.155-14.321-50.907-21.188-77.487-21.188z" fill="#4c5699"/></g><g><g><path d="m304.538 474.714-8.889-33.173c-2.53-9.444-12.237-15.048-21.681-12.517-2.922.783-5.475 2.511-7.534 4.447h-18.319l-29.915 23.659 29.915 23.915h21.466l.759 2.832c2.144 8 9.436 13.122 17.357 13.122 9.341 0 17.418-8.356 17.418-17.763 0-1.488-.17-3.006-.577-4.522z" fill="#676fb2"/><path d="m248.115 433.472h-18.289c-2.06-1.937-4.613-3.665-7.535-4.447-9.444-2.53-19.15 3.074-21.681 12.517l-8.889 33.173c-2.971 11.093 5.339 22.285 16.797 22.285 7.94 0 15.256-5.107 17.404-13.122l.759-2.832h21.435c-13.209-13.209-13.209-34.366-.001-47.574z" fill="#4c5699"/></g><g><circle cx="182.5" cy="464.452" fill="#ffcbbe" r="22.5"/><circle cx="314.5" cy="464.452" fill="#ffddcf" r="22.5"/></g></g></g></svg>